<svg xmlns="http://www.w3.org/2000/svg" width="18" height="22" viewBox="0 0 18 22">
    <path fill="#303030" fill-rule="nonzero" d="M0 20.203C0 21.194.793 22 1.767 22h10.64c.974 0 1.767-.806 1.767-1.797v-2.188h2.06c.973 0 1.766-.806 1.766-1.797V5.762a.47.47 0 0 0-.063-.232.47.47 0 0 0-.072-.099L12.658.137a.456.456 0 0 0-.125-.088.449.449 0 0 0-.11-.04h-.004A.443.443 0 0 0 12.332 0H5.594c-.975 0-1.768.806-1.768 1.797v2.188H1.767C.793 3.985 0 4.791 0 5.782v14.421zm8.966-14.62l1.818 1.848 1.818 1.848h-2.79a.854.854 0 0 1-.846-.86V5.583zm3.827-3.985l1.818 1.848 1.817 1.848h-2.79a.854.854 0 0 1-.845-.86V1.598zm-8.046.199c0-.475.38-.86.847-.86h6.278v3.497c0 .99.792 1.796 1.767 1.796h3.44v9.989c0 .474-.38.86-.846.86h-2.06V9.747a.47.47 0 0 0-.063-.232.47.47 0 0 0-.071-.099L8.83 4.122a.46.46 0 0 0-.097-.073l-.026-.014a.45.45 0 0 0-.112-.04h-.002a.46.46 0 0 0-.088-.01H4.747V1.797zM.921 5.782c0-.475.38-.86.846-.86H8.045v3.497c0 .99.793 1.796 1.767 1.796h3.44v9.988c0 .475-.38.86-.846.86H1.767a.854.854 0 0 1-.846-.86V5.782z"/>
</svg>
