<svg xmlns="http://www.w3.org/2000/svg" width="16" height="21" viewBox="0 0 16 21">
    <g fill="#303030" fill-rule="nonzero">
        <path d="M1.29 7.17h.207v10.74a2.592 2.592 0 0 0 2.58 2.589h7.846c1.419 0 2.58-1.165 2.58-2.588V7.169h.207c.722 0 1.29-.569 1.29-1.294V3.753a1.28 1.28 0 0 0-1.29-1.294h-3.2v-.803c0-.776-.645-1.423-1.42-1.423H5.91c-.775 0-1.42.647-1.42 1.423v.803h-3.2c-.722 0-1.29.57-1.29 1.294v2.122c0 .7.594 1.294 1.29 1.294zm12.181 10.74c0 .855-.697 1.554-1.548 1.554H4.077A1.555 1.555 0 0 1 2.53 17.91V7.169h10.942v10.742zM5.523 1.657c0-.207.18-.388.387-.388h4.155c.206 0 .387.181.387.388v.803h-4.93v-.803zm-4.49 2.097c0-.155.102-.259.257-.259h13.42c.155 0 .258.104.258.259v2.122c0 .156-.103.26-.258.26H1.29c-.155 0-.258-.104-.258-.26V3.753z"/>
        <path d="M10.142 9.395h1.032v7.558h-1.032zM7.484 9.395h1.032v7.558H7.484zM4.826 9.395h1.032v7.558H4.826z"/>
    </g>
</svg>
