<svg xmlns="http://www.w3.org/2000/svg" width="15" height="16" viewBox="0 0 15 16">
    <g fill="#303030" fill-rule="nonzero">
        <path d="M11.735 1.55h-.595V.51a.443.443 0 0 0-.441-.444c-.243 0-.442.2-.442.443v1.04H4.743V.51A.443.443 0 0 0 4.3.066c-.242 0-.44.2-.44.443v1.04h-.596a3.103 3.103 0 0 0-3.089 3.1v8.123a3.103 3.103 0 0 0 3.089 3.1h8.492a3.103 3.103 0 0 0 3.089-3.1V4.648c-.022-1.704-1.39-3.099-3.11-3.099zm0 13.436h-8.47a2.216 2.216 0 0 1-2.206-2.214V6.641h12.904v6.131c-.022 1.218-1.014 2.214-2.228 2.214zm2.206-9.23H1.06V4.647c0-1.217.992-2.213 2.206-2.213h.595v1.04c0 .244.199.443.441.443.243 0 .442-.2.442-.443v-1.04h5.514v1.04c0 .244.199.443.442.443.242 0 .44-.2.44-.443v-1.04h.596c1.214 0 2.206.996 2.206 2.213v1.107z"/>
        <path d="M11.228 11.51H3.772a.443.443 0 0 0 0 .886h7.434c.243 0 .441-.2.441-.443s-.176-.443-.42-.443zM5.03 9.895h4.963a.443.443 0 0 0 0-.886H5.029a.443.443 0 0 0 0 .886z"/>
    </g>
</svg>
