<svg xmlns="http://www.w3.org/2000/svg" width="16" height="15" viewBox="0 0 16 15">
    <path fill="#303030" fill-rule="evenodd" d="M7.908 0c4.325 0 7.837 3.36 7.837 7.5 0 4.14-3.512 7.5-7.837 7.5C3.583 15 .072 11.64.072 7.5.072 3.36 3.583 0 7.908 0zm0 .938c3.785 0 6.857 2.94 6.857 6.562 0 3.622-3.072 6.563-6.857 6.563-3.784 0-6.857-2.941-6.857-6.563S4.124.937 7.908.937zm0 2.812c2.163 0 3.919 1.68 3.919 3.75 0 2.07-1.756 3.75-3.919 3.75-2.162 0-3.918-1.68-3.918-3.75 0-2.07 1.756-3.75 3.918-3.75z"/>
</svg>
